<svg width="49" height="49" viewBox="0 0 49 49" fill="none" xmlns="http://www.w3.org/2000/svg">
<rect width="16.3333" height="16.3333" transform="matrix(1 0 0 -1 0 16.3335)" fill="black"/>
<rect width="16.3333" height="16.3333" transform="matrix(1 0 0 -1 16.3334 16.3333)" fill="white"/>
<rect width="16.3333" height="16.3333" transform="matrix(1 0 0 -1 32.6666 16.3335)" fill="black"/>
<rect width="16.3333" height="16.3333" transform="matrix(1 0 0 -1 0 32.6667)" fill="black"/>
<rect width="16.3333" height="16.3333" transform="matrix(1 0 0 -1 16.3334 32.6667)" fill="black"/>
<rect width="16.3333" height="16.3333" transform="matrix(1 0 0 -1 32.6666 32.6667)" fill="white"/>
<rect width="16.3333" height="16.3333" transform="matrix(1 0 0 -1 0 49)" fill="white"/>
<rect width="16.3333" height="16.3333" transform="matrix(1 0 0 -1 16.3334 49)" fill="white"/>
<rect width="16.3333" height="16.3333" transform="matrix(1 0 0 -1 32.6666 49)" fill="white"/>
</svg>
